HIERARCHY
ROOT joint_Root
{
	OFFSET 0.0 0.0 0.0
	CHANNELS 6 Xposition Yposition Zposition Zrotation Xrotation Yrotation 
	JOINT Hips
	{
		OFFSET 4.5925 91.4895 -427.239
		CHANNELS 6 Xposition Yposition Zposition Zrotation Xrotation Yrotation 
		JOINT Spine
		{
			OFFSET 15.7357 0.0 0.0
			CHANNELS 6 Xposition Yposition Zposition Zrotation Xrotation Yrotation 
			JOINT Chest
			{
				OFFSET 8.98455 -0.406207 0.0
				CHANNELS 6 Xposition Yposition Zposition Zrotation Xrotation Yrotation 
				JOINT Neck
				{
					OFFSET 16.3773 0.0 0.0
					CHANNELS 6 Xposition Yposition Zposition Zrotation Xrotation Yrotation 
					JOINT Head
					{
						OFFSET 6.45672 0.0 0.0
						CHANNELS 6 Xposition Yposition Zposition Zrotation Xrotation Yrotation 
						End Site
						{
							OFFSET 0.0 0.0 0.0
						}
					}
				}
				JOINT Shoulder_L
				{
					OFFSET 12.9942 -0.242716 4.98039
					CHANNELS 6 Xposition Yposition Zposition Zrotation Xrotation Yrotation 
					JOINT UpperArm_L
					{
						OFFSET 5.34809 0.0 0.0
						CHANNELS 6 Xposition Yposition Zposition Zrotation Xrotation Yrotation 
						JOINT LowerArm_L
						{
							OFFSET 24.3286 1.87007e-05 0.0
							CHANNELS 6 Xposition Yposition Zposition Zrotation Xrotation Yrotation 
							JOINT Hand_L
							{
								OFFSET 22.2916 0.0 0.0
								CHANNELS 6 Xposition Yposition Zposition Zrotation Xrotation Yrotation 
								End Site
								{
									OFFSET 0.0 0.0 0.0
								}
							}
						}
					}
				}
				JOINT Shoulder_R
				{
					OFFSET 12.9945 -0.242716 -4.98039
					CHANNELS 6 Xposition Yposition Zposition Zrotation Xrotation Yrotation 
					JOINT UpperArm_R
					{
						OFFSET -5.34813 0.0 0.0
						CHANNELS 6 Xposition Yposition Zposition Zrotation Xrotation Yrotation 
						JOINT LowerArm_R
						{
							OFFSET -24.3289 0.000322201 0.0
							CHANNELS 6 Xposition Yposition Zposition Zrotation Xrotation Yrotation 
							JOINT Hand_R
							{
								OFFSET -22.2915 -0.000108084 0.0
								CHANNELS 6 Xposition Yposition Zposition Zrotation Xrotation Yrotation 
								End Site
								{
									OFFSET 0.0 0.0 0.0
								}
							}
						}
					}
				}
			}
		}
		JOINT UpperLeg_L
		{
			OFFSET -2.19248 -6.46944 0.0
			CHANNELS 6 Xposition Yposition Zposition Zrotation Xrotation Yrotation 
			JOINT LowerLeg_L
			{
				OFFSET 39.0811 0.0 -1.23785e-05
				CHANNELS 6 Xposition Yposition Zposition Zrotation Xrotation Yrotation 
				JOINT Foot_L
				{
					OFFSET 40.9854 0.0 -1.26872e-05
					CHANNELS 6 Xposition Yposition Zposition Zrotation Xrotation Yrotation 
					JOINT Toes_L
					{
						OFFSET 11.7543 0.0 0.0
						CHANNELS 6 Xposition Yposition Zposition Zrotation Xrotation Yrotation 
						End Site
						{
							OFFSET 0.0 0.0 0.0
						}
					}
				}
			}
		}
		JOINT UpperLeg_R
		{
			OFFSET -2.19251 6.46944 0.0
			CHANNELS 6 Xposition Yposition Zposition Zrotation Xrotation Yrotation 
			JOINT LowerLeg_R
			{
				OFFSET -39.0811 -0.00228153 -0.0401928
				CHANNELS 6 Xposition Yposition Zposition Zrotation Xrotation Yrotation 
				JOINT Foot_R
				{
					OFFSET -40.9854 0.0 0.0
					CHANNELS 6 Xposition Yposition Zposition Zrotation Xrotation Yrotation 
					JOINT Toes_R
					{
						OFFSET -11.7543 0.0 0.0
						CHANNELS 6 Xposition Yposition Zposition Zrotation Xrotation Yrotation 
						End Site
						{
							OFFSET 0.0 0.0 0.0
						}
					}
				}
			}
		}
	}
}
MOTION
Frames:	6
Frame Time:	0.0333333
0.000000 0.000000 0.000000 0.000000 0.000000 -0.000000 -2.521050 83.808200 -2.800260 84.191500 1.066180 9.204710 15.735700 0.000005 -0.000001 82.128400 81.688400 -80.872000 8.984550 -0.406207 -0.000000 8.731700 -2.254740 2.682910 16.377300 -0.000001 -0.000001 -2.582200 -2.491750 1.382860 6.456720 -0.000001 -0.000000 -3.552020 0.134154 1.381130 12.994200 -0.242716 4.980390 -91.217800 4.399700 -74.510300 5.348090 -0.000007 -0.000001 -66.793900 25.901600 -9.002750 24.328600 0.000019 0.000005 11.742600 18.147300 -33.722000 22.291600 -0.000001 0.000005 16.410400 5.297590 0.119969 12.994500 -0.242716 -4.980390 87.893900 11.037300 -79.126000 -5.348130 -0.000001 -0.000004 -58.807200 22.780800 -9.188350 -24.328900 0.000322 -0.000009 -2.541280 -4.318130 -30.507000 -22.291500 -0.000108 -0.000004 16.388700 5.428740 -3.850610 -2.192480 -6.469440 -0.000000 -168.128000 -8.492250 -17.660800 39.081100 -0.000007 -0.000012 -0.339620 0.201144 59.364300 40.985400 -0.000006 -0.000013 1.692650 9.206860 -82.797400 11.754300 -0.000000 0.000003 -0.000140 -0.001370 -16.629700 -2.192510 6.469440 -0.000001 -176.553000 14.859300 165.728000 -39.081100 -0.002282 -0.040193 -0.018492 0.014730 55.849900 -40.985400 0.000008 0.000006 8.286140 5.058300 -83.375100 -11.754300 -0.000006 -0.000006 -0.441573 -0.540079 -16.230700
0.000000 0.000000 0.000000 0.000000 0.000000 -0.000000 -2.811390 85.756200 -1.962390 83.770400 3.164740 9.309130 15.735700 0.000005 -0.000001 81.444700 82.450400 -81.076000 8.984550 -0.406207 -0.000000 7.176580 -2.240080 0.877229 16.377300 -0.000001 -0.000001 -1.220460 -2.491960 1.378140 6.456720 -0.000001 -0.000000 -2.059590 -0.353809 3.359890 12.994200 -0.242716 4.980390 -91.120500 3.828540 -73.672600 5.348090 -0.000007 -0.000001 -69.043600 22.594200 -7.320860 24.328600 0.000019 0.000005 9.957900 17.391300 -30.425600 22.291600 -0.000001 0.000005 17.825300 5.155420 3.811600 12.994500 -0.242716 -4.980390 87.929100 9.951360 -78.180500 -5.348130 -0.000001 -0.000004 -61.684900 14.947900 -7.115790 -24.328900 0.000322 -0.000009 -4.626960 -6.629930 -34.999700 -22.291500 -0.000108 -0.000004 11.553200 5.417640 -3.552670 -2.192480 -6.469440 -0.000000 -167.608000 -7.511480 -14.541000 39.081100 -0.000007 -0.000012 -0.268996 0.199565 53.429500 40.985400 -0.000006 -0.000013 1.577520 10.471800 -80.272000 11.754300 -0.000000 0.000003 -0.000124 -0.001235 -16.624700 -2.192510 6.469440 -0.000001 -176.475000 17.249300 169.801000 -39.081100 -0.002282 -0.040193 0.061169 -0.049871 49.269800 -40.985400 0.000008 0.000006 8.657320 5.655610 -80.759100 -11.754300 -0.000006 -0.000006 -0.514438 -0.631929 -16.446400
0.000000 0.000000 0.000000 0.000000 0.000000 -0.000000 -2.762790 88.405600 -1.187150 84.145100 4.253130 8.227500 15.735700 0.000005 -0.000001 81.179600 83.669600 -82.041100 8.984550 -0.406207 -0.000000 4.733270 -1.914970 -1.641970 16.377300 -0.000001 -0.000001 0.588703 -2.231670 1.482000 6.456720 -0.000001 -0.000000 -1.036450 -0.460828 4.946410 12.994200 -0.242716 4.980390 -91.035700 3.256700 -72.343000 5.348090 -0.000007 -0.000001 -69.828500 20.634500 -4.775420 24.328600 0.000019 0.000005 7.651550 14.294100 -28.551100 22.291600 -0.000001 0.000005 16.024600 5.101860 5.063250 12.994500 -0.242716 -4.980390 88.081700 8.246570 -76.854100 -5.348130 -0.000001 -0.000004 -57.385000 11.843800 -10.174100 -24.328900 0.000322 -0.000009 -4.394680 -4.693140 -43.259500 -22.291500 -0.000108 -0.000004 11.561300 5.484520 -5.870790 -2.192480 -6.469440 -0.000000 -168.261000 -7.640270 -10.612700 39.081100 -0.000007 -0.000012 -0.160669 0.166230 44.026100 40.985400 -0.000006 -0.000013 1.167430 11.294500 -75.974700 11.754300 -0.000000 0.000003 -0.000074 -0.000792 -16.608100 -2.192510 6.469440 -0.000001 -176.963000 18.351000 173.964000 -39.081100 -0.002282 -0.040193 0.042267 -0.046975 39.691600 -40.985400 0.000008 0.000006 8.014910 6.841070 -75.689300 -11.754300 -0.000006 -0.000006 -0.532020 -0.653384 -17.244300
0.000000 0.000000 0.000000 0.000000 0.000000 -0.000000 -2.266670 90.633500 -0.842529 85.104700 4.005640 6.095140 15.735700 0.000005 -0.000001 80.659900 85.173600 -82.839900 8.984550 -0.406207 -0.000000 1.735620 -1.451060 -4.334220 16.377300 -0.000001 -0.000001 2.373900 -1.339610 1.353040 6.456720 -0.000001 -0.000000 0.032371 -0.242786 6.001640 12.994200 -0.242716 4.980390 -90.674900 1.920940 -70.632800 5.348090 -0.000007 -0.000001 -70.467500 17.998200 -1.321730 24.328600 0.000019 0.000005 8.429280 15.322200 -29.281100 22.291600 -0.000001 0.000005 11.356300 5.174880 3.299500 12.994500 -0.242716 -4.980390 88.517500 6.129890 -76.376100 -5.348130 -0.000001 -0.000004 -48.590100 5.006390 -17.788100 -24.328900 0.000322 -0.000009 -2.595370 -1.951510 -53.029400 -22.291500 -0.000108 -0.000004 15.472500 5.541620 -8.261930 -2.192480 -6.469440 -0.000000 -169.923000 -8.597010 -7.360120 39.081100 -0.000007 -0.000012 -0.099278 0.146270 34.166200 40.985400 -0.000006 -0.000013 0.691106 11.255600 -71.306900 11.754300 -0.000000 0.000003 -0.000045 -0.000512 -16.597500 -2.192510 6.469440 -0.000001 -178.276000 20.616300 176.279000 -39.081100 -0.002282 -0.040193 0.026668 -0.038782 31.071400 -40.985400 0.000008 0.000006 7.578730 10.486300 -69.802700 -11.754300 -0.000006 -0.000006 -0.896676 -1.078580 -18.738800
0.000000 0.000000 0.000000 0.000000 0.000000 -0.000000 -1.569850 91.917200 -0.692590 85.197000 3.083840 4.764210 15.735700 0.000005 -0.000001 82.995100 86.148000 -85.711400 8.984550 -0.406207 -0.000000 -0.131425 -0.752257 -5.430090 16.377300 -0.000001 -0.000001 3.172000 -0.546244 0.680904 6.456720 -0.000001 -0.000000 0.379644 0.015481 5.939170 12.994200 -0.242716 4.980390 -90.683200 1.789520 -69.106500 5.348090 -0.000007 -0.000001 -69.542600 16.717400 1.869680 24.328600 0.000019 0.000005 10.348000 17.289600 -31.565000 22.291600 -0.000001 0.000005 7.223930 5.241400 1.647030 12.994500 -0.242716 -4.980390 89.156600 3.680990 -77.096600 -5.348130 -0.000001 -0.000004 -38.046600 -9.056040 -28.111300 -24.328900 0.000322 -0.000009 -8.216620 -5.104360 -58.345900 -22.291500 -0.000108 -0.000004 21.556500 5.562010 -9.241780 -2.192480 -6.469440 -0.000000 -170.634000 -9.907880 -4.901350 39.081100 -0.000007 -0.000012 -0.081493 0.157606 27.342100 40.985400 -0.000006 -0.000013 0.593996 11.217200 -68.125500 11.754300 -0.000000 0.000003 -0.000044 -0.000503 -16.597100 -2.192510 6.469440 -0.000001 -179.253000 24.233300 177.733000 -39.081100 -0.002282 -0.040193 0.020727 -0.036104 25.753400 -40.985400 0.000008 0.000006 7.029980 15.494400 -65.756700 -11.754300 -0.000006 -0.000006 -0.027692 -0.088359 -19.158500
0.000000 0.000000 0.000000 0.000000 0.000000 -0.000000 -1.028810 92.436500 -0.841620 85.020200 2.411400 3.710370 15.735700 0.000005 -0.000001 89.596600 86.608800 -92.477200 8.984550 -0.406207 -0.000000 -0.972890 0.171752 -5.757270 16.377300 -0.000001 -0.000001 2.540830 -0.252280 -0.039514 6.456720 -0.000001 -0.000000 -0.038281 -0.177695 5.639000 12.994200 -0.242716 4.980390 -91.144400 2.828770 -67.964800 5.348090 -0.000007 -0.000001 -66.795000 17.326200 3.540620 24.328600 0.000019 0.000005 10.932300 17.046500 -33.381200 22.291600 -0.000001 0.000005 5.506320 5.256930 1.248830 12.994500 -0.242716 -4.980390 90.007600 -0.046456 -79.255800 -5.348130 -0.000001 -0.000004 -30.376000 -28.687000 -36.534300 -24.328900 0.000322 -0.000009 -14.812100 -9.903550 -56.966500 -22.291500 -0.000108 -0.000004 26.976800 5.611100 -12.032700 -2.192480 -6.469440 -0.000000 -170.896000 -11.535300 -4.407750 39.081100 -0.000007 -0.000012 -0.060907 0.134403 24.378500 40.985400 -0.000006 -0.000013 0.870843 11.911500 -66.650300 11.754300 -0.000000 0.000003 -0.000049 -0.000560 -16.599300 -2.192510 6.469440 -0.000001 -179.595000 26.970500 178.162000 -39.081100 -0.002282 -0.040193 0.016783 -0.032163 22.719400 -40.985400 0.000008 0.000006 6.450160 19.363300 -63.856500 -11.754300 -0.000006 -0.000006 -0.005430 -0.065567 -19.241200
